Coordinates
version=1
nRows=13
nColumns=63
inDegrees=yes

Units are S.I. units (second, meters, Newtons, ...)
If the header above contains a line with 'inDegrees', this indicates whether rotational values are in degrees (yes) or radians (no).

endheader
time	pelvis_tilt	pelvis_list	pelvis_rotation	pelvis_tx	pelvis_ty	pelvis_tz	hip_flexion_r	hip_adduction_r	hip_rotation_r	knee_angle_r	knee_angle_r_beta	ankle_angle_r	subtalar_angle_r	mtp_angle_r	hip_flexion_l	hip_adduction_l	hip_rotation_l	knee_angle_l	knee_angle_l_beta	ankle_angle_l	subtalar_angle_l	mtp_angle_l	L5_S1_Flex_Ext	L5_S1_Lat_Bending	L5_S1_axial_rotation	L4_L5_Flex_Ext	L4_L5_Lat_Bending	L4_L5_axial_rotation	L3_L4_Flex_Ext	L3_L4_Lat_Bending	L3_L4_axial_rotation	L2_L3_Flex_Ext	L2_L3_Lat_Bending	L2_L3_axial_rotation	L1_L2_Flex_Ext	L1_L2_Lat_Bending	L1_L2_axial_rotation	L1_T12_Flex_Ext	L1_T12_Lat_Bending	L1_T12_axial_rotation	Abs_r3	Abs_r2	Abs_r1	Abs_t1	Abs_t2	neck_flexion	neck_bending	neck_rotation	arm_flex_r	arm_add_r	arm_rot_r	elbow_flex_r	pro_sup_r	wrist_flex_r	wrist_dev_r	arm_flex_l	arm_add_l	arm_rot_l	elbow_flex_l	pro_sup_l	wrist_flex_l	wrist_dev_l
2.423077	-0.545206	-3.235998	91.276494	0.146625	0.954887	0.421581	-7.483587	-1.239070	-22.672175	13.433427	0.234458	33.026392	4.269747	0.000000	-9.813204	0.230178	14.567061	0.883293	0.015416	35.223734	-12.041977	0.000000	-0.022911	0.265838	-2.182363	-0.042548	0.353565	-2.318760	-0.037640	0.646359	-2.318760	-0.026185	0.646359	-1.909567	-0.021275	0.542097	-1.773170	-0.013091	0.411783	-1.636772	-0.163650	3.007215	-12.137646	0.000000	0.000000	15.928343	8.873235	10.977915	-1.469024	-14.870897	23.468777	89.344685	89.087474	2.557022	11.322315	3.736203	-11.985457	41.698184	87.010579	88.396572	1.253784	9.690631
2.442308	-0.589788	-3.324580	91.444841	0.146628	0.954793	0.421861	-7.417532	-1.237708	-22.890916	13.394906	0.233785	33.061359	4.286758	0.000000	-9.674581	0.238429	14.605805	0.900447	0.015716	35.295075	-11.902201	0.000000	-0.021422	0.259286	-2.210530	-0.039782	0.344850	-2.348688	-0.035194	0.630427	-2.348688	-0.024483	0.630427	-1.934214	-0.019892	0.528736	-1.796056	-0.012240	0.401634	-1.657898	-0.153012	2.933093	-12.294305	0.000000	0.000000	15.908752	8.985868	10.997408	-1.598605	-14.862019	23.398161	89.477485	89.089988	2.140938	10.672480	3.878129	-12.085817	42.069613	87.063247	88.553821	0.753140	9.483187
2.461538	-0.646584	-3.420916	91.687697	0.146535	0.954693	0.422224	-7.354377	-1.242726	-23.228085	13.353215	0.233058	33.108517	4.369128	0.000000	-9.507941	0.250193	14.649532	0.918941	0.016039	35.393245	-11.698630	0.000000	-0.021850	0.252210	-2.254069	-0.040578	0.335439	-2.394949	-0.035898	0.613223	-2.394949	-0.024973	0.613223	-1.972311	-0.020290	0.514307	-1.831431	-0.012485	0.390673	-1.690552	-0.156073	2.853050	-12.536458	0.000000	0.000000	15.961005	9.097764	10.999730	-1.720315	-14.791884	23.227302	89.593831	89.091667	1.839020	9.889496	4.013250	-12.166423	42.360389	87.117931	88.955657	0.051572	9.067739
2.480769	-0.713404	-3.549023	91.956697	0.146398	0.954550	0.422658	-7.256046	-1.259684	-23.603031	13.320993	0.232495	33.171413	4.485341	0.000000	-9.293954	0.272869	14.739017	0.936739	0.016349	35.489657	-11.538029	0.000000	-0.020142	0.245022	-2.296717	-0.037406	0.325879	-2.440261	-0.033091	0.595746	-2.440261	-0.023020	0.595746	-2.009627	-0.018704	0.499648	-1.866082	-0.011509	0.379538	-1.722537	-0.143872	2.771734	-12.773649	0.000000	0.000000	16.077905	9.180221	10.956499	-1.875364	-14.660706	22.934823	89.728649	89.089463	1.487790	8.961422	4.151359	-12.201003	42.563954	87.132877	89.148702	-0.624068	8.446948
2.500000	-0.784118	-3.696330	92.251187	0.146200	0.954380	0.423156	-7.136079	-1.287357	-24.047768	13.298162	0.232097	33.251737	4.690610	0.000000	-9.046023	0.300598	14.776130	0.957581	0.016713	35.613188	-11.277377	0.000000	-0.018423	0.238695	-2.337101	-0.034214	0.317464	-2.483170	-0.030267	0.580362	-2.483170	-0.021056	0.580362	-2.044964	-0.017108	0.486746	-1.898895	-0.010527	0.369738	-1.752826	-0.131595	2.700160	-12.998257	0.000000	0.000000	16.254833	9.261409	10.907761	-2.075711	-14.451821	22.490154	89.907694	89.081942	1.091222	8.005823	4.302726	-12.180515	42.685615	87.109063	89.033252	-1.226857	7.683013
2.519231	-0.854615	-3.858396	92.572910	0.145928	0.954188	0.423708	-7.002259	-1.320290	-24.560207	13.277095	0.231729	33.348810	4.993004	0.000000	-8.773455	0.328745	14.862465	0.975923	0.017033	35.730299	-11.040366	0.000000	-0.016615	0.233744	-2.375669	-0.030856	0.310880	-2.524149	-0.027297	0.568325	-2.524149	-0.018990	0.568325	-2.078711	-0.015429	0.476651	-1.930231	-0.009494	0.362069	-1.781752	-0.118681	2.644159	-13.212760	0.000000	0.000000	16.458489	9.317742	10.833018	-2.342237	-14.160107	21.902671	90.117241	89.070985	0.595902	6.901162	4.486834	-12.093901	42.733966	87.022492	88.625809	-1.660494	6.820934
2.538462	-0.917783	-4.027145	92.878269	0.145623	0.953983	0.424286	-6.852938	-1.357399	-25.068424	13.269677	0.231600	33.458713	5.359498	0.000000	-8.492501	0.356585	14.942384	0.991575	0.017306	35.836539	-10.808226	0.000000	-0.014867	0.231014	-2.406564	-0.027609	0.307249	-2.556974	-0.024425	0.561688	-2.556974	-0.016991	0.561688	-2.105743	-0.013805	0.471084	-1.955333	-0.008495	0.357841	-1.804923	-0.106193	2.613280	-13.384587	0.000000	0.000000	16.653015	9.354428	10.737881	-2.671366	-13.804077	21.204011	90.349214	89.058890	0.071997	5.651933	4.709643	-11.927056	42.702815	86.846370	87.955306	-1.771866	5.980078
2.557692	-0.973006	-4.195567	93.167366	0.145293	0.953778	0.424855	-6.700059	-1.394172	-25.563550	13.266592	0.231546	33.564017	5.767466	0.000000	-8.213380	0.381369	14.973602	1.007800	0.017589	35.942275	-10.517927	0.000000	-0.013221	0.230276	-2.431776	-0.024554	0.306267	-2.583762	-0.021722	0.559892	-2.583762	-0.015111	0.559892	-2.127804	-0.012277	0.469578	-1.975818	-0.007555	0.356697	-1.823832	-0.094439	2.604925	-13.524809	0.000000	0.000000	16.811082	9.397341	10.658071	-3.042210	-13.400594	20.463743	90.595641	89.045602	-0.495348	4.223605	4.950797	-11.682539	42.569540	86.593702	87.036359	-1.428166	5.334263
2.576923	-1.016481	-4.357019	93.388777	0.144998	0.953590	0.425381	-6.544713	-1.434984	-26.009893	13.273444	0.231665	33.667285	6.229369	0.000000	-7.954961	0.406863	15.004909	1.017100	0.017752	36.011316	-10.310468	0.000000	-0.011504	0.231766	-2.442266	-0.021363	0.308248	-2.594907	-0.018899	0.563515	-2.594907	-0.013147	0.563515	-2.136982	-0.010682	0.472617	-1.984341	-0.006573	0.359005	-1.831699	-0.082168	2.621780	-13.583149	0.000000	0.000000	16.937456	9.406850	10.562155	-3.410582	-12.986088	19.757129	90.850486	89.030136	-1.111389	2.600624	5.155426	-11.380599	42.330599	86.300340	85.873590	-0.631637	4.909979
2.596154	-1.059989	-4.505406	93.498612	0.144814	0.953432	0.425841	-6.383013	-1.489131	-26.293553	13.298043	0.232095	33.753017	6.611610	0.000000	-7.727716	0.449156	14.881760	1.026361	0.017913	36.077200	-10.037371	0.000000	-0.009755	0.233370	-2.429592	-0.018116	0.310383	-2.581441	-0.016027	0.567417	-2.581441	-0.011149	0.567417	-2.125893	-0.009059	0.475889	-1.974043	-0.005574	0.361491	-1.822194	-0.069680	2.639932	-13.512660	0.000000	0.000000	17.061902	9.377812	10.429724	-3.732049	-12.577198	19.127757	91.128319	89.012962	-1.752266	0.916002	5.239359	-11.066332	41.942428	86.081307	84.529493	0.607661	4.798103
2.615385	-1.096689	-4.637268	93.500082	0.144751	0.953304	0.426197	-6.228600	-1.556443	-26.510516	13.331349	0.232676	33.839163	7.031740	0.000000	-7.543289	0.499623	14.777485	1.026330	0.017913	36.088355	-9.942026	0.000000	-0.007796	0.235277	-2.393228	-0.014478	0.312918	-2.542805	-0.012808	0.572053	-2.542805	-0.008910	0.572053	-2.094074	-0.007239	0.479777	-1.944498	-0.004455	0.364444	-1.794921	-0.055686	2.661501	-13.310415	0.000000	0.000000	17.229119	9.265948	10.236796	-3.965642	-12.213414	18.603846	91.452170	88.993315	-2.347434	-0.700301	5.091718	-10.774093	41.310223	86.084208	83.076754	2.243432	5.035132
2.634615	-1.140168	-4.752229	93.359928	0.144873	0.953204	0.426424	-6.071381	-1.648977	-26.574937	13.385985	0.233630	33.917300	7.378973	0.000000	-7.406887	0.575499	14.633152	1.020143	0.017805	36.041079	-9.983998	0.000000	-0.005020	0.235113	-2.326001	-0.009323	0.312701	-2.471376	-0.008247	0.571655	-2.471376	-0.005737	0.571655	-2.035251	-0.004662	0.479443	-1.889876	-0.002868	0.364191	-1.744501	-0.035858	2.659650	-12.936518	0.000000	0.000000	17.470860	9.061305	9.964046	-4.092338	-11.914137	18.183384	91.859490	88.965739	-2.865000	-2.047217	4.608817	-10.530875	40.337298	86.469997	81.638360	4.038960	5.572085
2.653846	-1.199803	-4.853776	93.088453	0.145196	0.953123	0.426481	-5.917736	-1.774881	-26.547586	13.450107	0.234749	33.993015	7.709423	0.000000	-7.316272	0.683105	14.447026	1.007365	0.017582	35.932177	-10.158235	0.000000	-0.000205	0.231250	-2.228895	-0.000381	0.307562	-2.368201	-0.000337	0.562261	-2.368201	-0.000235	0.562261	-1.950283	-0.000191	0.471565	-1.810977	-0.000117	0.358206	-1.671671	-0.001466	2.615944	-12.396445	0.000000	0.000000	17.812099	8.748216	9.640408	-4.104423	-11.687617	17.863074	92.363009	88.928009	-3.363860	-3.037370	3.735669	-10.363726	38.961653	87.375494	80.300453	5.766799	6.315926
